<svg width="393" height="21" viewBox="0 0 393 21" fill="none" xmlns="http://www.w3.org/2000/svg">
<path d="M4.74401 6.30505C4.74401 5.72236 3.68203 5.25 2.37201 5.25C1.06198 5.25 0 5.72236 0 6.30505V14.4313C0 15.014 1.06198 15.4864 2.37201 15.4864C3.68203 15.4864 4.74401 15.014 4.74401 14.4313V6.30505Z" fill="#1F1808"/>
<path d="M14.1937 4.14318C14.1937 3.5605 13.1317 3.08813 11.8217 3.08813C10.5117 3.08813 9.44971 3.5605 9.44971 4.14318V16.8235C9.44971 17.4062 10.5117 17.8785 11.8217 17.8785C13.1317 17.8785 14.1937 17.4062 14.1937 16.8235V4.14318Z" fill="#1F1808"/>
<path d="M21.2734 4.01465C19.9638 4.01465 18.9014 4.48719 18.9014 5.0697V16.1254C18.9014 16.7079 19.9638 17.1805 21.2734 17.1805C22.583 17.1805 23.6454 16.7079 23.6454 16.1254V5.0697C23.6454 4.48719 22.583 4.01465 21.2734 4.01465Z" fill="#1F1808"/>
<path d="M30.7231 4.63232C29.4135 4.63232 28.3511 5.10487 28.3511 5.68737V15.4061C28.3511 15.9886 29.4135 16.4611 30.7231 16.4611C32.0327 16.4611 33.0951 15.9886 33.0951 15.4061V5.68737C33.0951 5.10487 32.0327 4.63232 30.7231 4.63232Z" fill="#1F1808"/>
<path d="M42.5453 4.14318C42.5453 3.5605 41.4833 3.08813 40.1733 3.08813C38.8633 3.08813 37.8013 3.5605 37.8013 4.14318V16.5844C37.8013 17.1671 38.8633 17.6394 40.1733 17.6394C41.4833 17.6394 42.5453 17.1671 42.5453 16.5844V4.14318Z" fill="#1F1808"/>
<path d="M49.623 5.25C48.3134 5.25 47.251 5.72254 47.251 6.30505V14.4313C47.251 15.0138 48.3134 15.4864 49.623 15.4864C50.9326 15.4864 51.995 15.0138 51.995 14.4313V6.30505C51.995 5.72254 50.9326 5.25 49.623 5.25Z" fill="#1F1808"/>
<path d="M59.0732 4.01465C57.7636 4.01465 56.7012 4.48719 56.7012 5.0697V16.1254C56.7012 16.7079 57.7636 17.1805 59.0732 17.1805C60.3828 17.1805 61.4452 16.7079 61.4452 16.1254V5.0697C61.4452 4.48719 60.3828 4.01465 59.0732 4.01465Z" fill="#1F1808"/>
<path d="M68.5234 2.16187C67.2138 2.16187 66.1514 2.63441 66.1514 3.21691V17.7118C66.1514 18.2943 67.2138 18.7669 68.5234 18.7669C69.833 18.7669 70.8954 18.2943 70.8954 17.7118V3.21691C70.8954 2.63441 69.833 2.16187 68.5234 2.16187Z" fill="#1F1808"/>
<path d="M80.3451 4.14318C80.3451 3.5605 79.2831 3.08813 77.9731 3.08813C76.6631 3.08813 75.6011 3.5605 75.6011 4.14318V16.5844C75.6011 17.1671 76.6631 17.6394 77.9731 17.6394C79.2831 17.6394 80.3451 17.1671 80.3451 16.5844V4.14318Z" fill="#1F1808"/>
<path d="M87.4233 2.7793C86.1137 2.7793 85.0513 3.25184 85.0513 3.83434V17.1355C85.0513 17.718 86.1137 18.1905 87.4233 18.1905C88.7329 18.1905 89.7953 17.718 89.7953 17.1355V3.83434C89.7953 3.25184 88.7329 2.7793 87.4233 2.7793Z" fill="#1F1808"/>
<path d="M99.245 7.23156C99.245 6.64887 98.183 6.17651 96.873 6.17651C95.563 6.17651 94.501 6.64887 94.501 7.23156V13.6385C94.501 14.2212 95.563 14.6936 96.873 14.6936C98.183 14.6936 99.245 14.2212 99.245 13.6385V7.23156Z" fill="#1F1808"/>
<path d="M106.324 4.94116C105.015 4.94116 103.952 5.41371 103.952 5.99621V14.9503C103.952 15.5328 105.015 16.0053 106.324 16.0053C107.634 16.0053 108.696 15.5328 108.696 14.9503V5.99621C108.696 5.41371 107.634 4.94116 106.324 4.94116Z" fill="#1F1808"/>
<path d="M118.145 6.92272C118.145 6.34004 117.083 5.86768 115.773 5.86768C114.463 5.86768 113.401 6.34004 113.401 6.92272V14.0222C113.401 14.6048 114.463 15.0772 115.773 15.0772C117.083 15.0772 118.145 14.6048 118.145 14.0222V6.92272Z" fill="#1F1808"/>
<path d="M125.225 4.32349C123.915 4.32349 122.853 4.79603 122.853 5.37853V15.7023C122.853 16.2848 123.915 16.7574 125.225 16.7574C126.534 16.7574 127.597 16.2848 127.597 15.7023V5.37853C127.597 4.79603 126.534 4.32349 125.225 4.32349Z" fill="#1F1808"/>
<path d="M134.674 0.926514C133.365 0.926514 132.302 1.39906 132.302 1.98156V18.7693C132.302 19.3518 133.365 19.8243 134.674 19.8243C135.984 19.8243 137.046 19.3518 137.046 18.7693V1.98156C137.046 1.39906 135.984 0.926514 134.674 0.926514Z" fill="#1F1808"/>
<path d="M146.496 4.14318C146.496 3.5605 145.434 3.08813 144.124 3.08813C142.814 3.08813 141.752 3.5605 141.752 4.14318V17.062C141.752 17.6447 142.814 18.1171 144.124 18.1171C145.434 18.1171 146.496 17.6447 146.496 17.062V4.14318Z" fill="#1F1808"/>
<path d="M155.946 3.21691C155.946 2.63423 154.884 2.16187 153.574 2.16187C152.264 2.16187 151.202 2.63423 151.202 3.21691V17.7124C151.202 18.2951 152.264 18.7674 153.574 18.7674C154.884 18.7674 155.946 18.2951 155.946 17.7124V3.21691Z" fill="#1F1808"/>
<path d="M163.024 0C161.715 0 160.652 0.472544 160.652 1.05505V19.9444C160.652 20.5269 161.715 20.9994 163.024 20.9994C164.334 20.9994 165.396 20.5269 165.396 19.9444V1.05505C165.396 0.472544 164.334 0 163.024 0Z" fill="#1F1808"/>
<path d="M172.475 2.16187C171.165 2.16187 170.103 2.63441 170.103 3.21691V17.7118C170.103 18.2943 171.165 18.7669 172.475 18.7669C173.784 18.7669 174.847 18.2943 174.847 17.7118V3.21691C174.847 2.63441 173.784 2.16187 172.475 2.16187Z" fill="#1F1808"/>
<path d="M184.296 4.45202C184.296 3.86933 183.234 3.39697 181.924 3.39697C180.614 3.39697 179.552 3.86933 179.552 4.45202V16.3203C179.552 16.903 180.614 17.3754 181.924 17.3754C183.234 17.3754 184.296 16.903 184.296 16.3203V4.45202Z" fill="#1F1808"/>
<path d="M193.746 1.05505C193.746 0.47236 192.684 0 191.374 0C190.064 0 189.002 0.47236 189.002 1.05505V19.945C189.002 20.5276 190.064 21 191.374 21C192.684 21 193.746 20.5276 193.746 19.945V1.05505Z" fill="#1F1808"/>
<path d="M200.826 3.39697C199.516 3.39697 198.454 3.86952 198.454 4.45202V16.3197C198.454 16.9022 199.516 17.3748 200.826 17.3748C202.135 17.3748 203.198 16.9022 203.198 16.3197V4.45202C203.198 3.86952 202.135 3.39697 200.826 3.39697Z" fill="#1F1808"/>
<path d="M210.275 2.16187C208.966 2.16187 207.903 2.63441 207.903 3.21691V17.7118C207.903 18.2943 208.966 18.7669 210.275 18.7669C211.585 18.7669 212.647 18.2943 212.647 17.7118V3.21691C212.647 2.63441 211.585 2.16187 210.275 2.16187Z" fill="#1F1808"/>
<path d="M222.098 6.30505C222.098 5.72236 221.036 5.25 219.726 5.25C218.415 5.25 217.354 5.72236 217.354 6.30505V14.4313C217.354 15.014 218.415 15.4864 219.726 15.4864C221.036 15.4864 222.098 15.014 222.098 14.4313V6.30505Z" fill="#1F1808"/>
<path d="M229.176 3.08813C227.866 3.08813 226.804 3.56068 226.804 4.14318V16.8229C226.804 17.4054 227.866 17.878 229.176 17.878C230.485 17.878 231.548 17.4054 231.548 16.8229V4.14318C231.548 3.56068 230.485 3.08813 229.176 3.08813Z" fill="#1F1808"/>
<path d="M238.625 4.01465C237.316 4.01465 236.253 4.48719 236.253 5.0697V16.1254C236.253 16.7079 237.316 17.1805 238.625 17.1805C239.935 17.1805 240.997 16.7079 240.997 16.1254V5.0697C240.997 4.48719 239.935 4.01465 238.625 4.01465Z" fill="#1F1808"/>
<path d="M248.076 4.63232C246.766 4.63232 245.704 5.10487 245.704 5.68737V15.4061C245.704 15.9886 246.766 16.4611 248.076 16.4611C249.385 16.4611 250.448 15.9886 250.448 15.4061V5.68737C250.448 5.10487 249.385 4.63232 248.076 4.63232Z" fill="#1F1808"/>
<path d="M259.898 4.14318C259.898 3.5605 258.836 3.08813 257.526 3.08813C256.216 3.08813 255.154 3.5605 255.154 4.14318V16.5844C255.154 17.1671 256.216 17.6394 257.526 17.6394C258.836 17.6394 259.898 17.1671 259.898 16.5844V4.14318Z" fill="#1F1808"/>
<path d="M266.976 5.25C265.666 5.25 264.604 5.72254 264.604 6.30505V14.4313C264.604 15.0138 265.666 15.4864 266.976 15.4864C268.285 15.4864 269.348 15.0138 269.348 14.4313V6.30505C269.348 5.72254 268.285 5.25 266.976 5.25Z" fill="#1F1808"/>
<path d="M276.426 4.01465C275.116 4.01465 274.054 4.48719 274.054 5.0697V16.1254C274.054 16.7079 275.116 17.1805 276.426 17.1805C277.735 17.1805 278.798 16.7079 278.798 16.1254V5.0697C278.798 4.48719 277.735 4.01465 276.426 4.01465Z" fill="#1F1808"/>
<path d="M285.875 2.16187C284.566 2.16187 283.503 2.63441 283.503 3.21691V17.7118C283.503 18.2943 284.566 18.7669 285.875 18.7669C287.185 18.7669 288.247 18.2943 288.247 17.7118V3.21691C288.247 2.63441 287.185 2.16187 285.875 2.16187Z" fill="#1F1808"/>
<path d="M297.698 4.14318C297.698 3.5605 296.636 3.08813 295.326 3.08813C294.016 3.08813 292.954 3.5605 292.954 4.14318V16.5844C292.954 17.1671 294.016 17.6394 295.326 17.6394C296.636 17.6394 297.698 17.1671 297.698 16.5844V4.14318Z" fill="#1F1808"/>
<path d="M304.777 2.7793C303.467 2.7793 302.405 3.25184 302.405 3.83434V17.1355C302.405 17.718 303.467 18.1905 304.777 18.1905C306.086 18.1905 307.149 17.718 307.149 17.1355V3.83434C307.149 3.25184 306.086 2.7793 304.777 2.7793Z" fill="#1F1808"/>
<path d="M314.226 6.17651C312.917 6.17651 311.854 6.64906 311.854 7.23156V13.6385C311.854 14.221 312.917 14.6936 314.226 14.6936C315.536 14.6936 316.599 14.221 316.599 13.6385V7.23156C316.599 6.64906 315.536 6.17651 314.226 6.17651Z" fill="#1F1808"/>
<path d="M326.049 5.99621C326.049 5.41352 324.987 4.94116 323.677 4.94116C322.367 4.94116 321.305 5.41352 321.305 5.99621V14.9509C321.305 15.5335 322.367 16.0059 323.677 16.0059C324.987 16.0059 326.049 15.5335 326.049 14.9509V5.99621Z" fill="#1F1808"/>
<path d="M335.499 6.92272C335.499 6.34004 334.437 5.86768 333.127 5.86768C331.817 5.86768 330.755 6.34004 330.755 6.92272V14.0222C330.755 14.6048 331.817 15.0772 333.127 15.0772C334.437 15.0772 335.499 14.6048 335.499 14.0222V6.92272Z" fill="#1F1808"/>
<path d="M342.577 4.32349C341.267 4.32349 340.205 4.79603 340.205 5.37853V15.7023C340.205 16.2848 341.267 16.7574 342.577 16.7574C343.887 16.7574 344.949 16.2848 344.949 15.7023V5.37853C344.949 4.79603 343.887 4.32349 342.577 4.32349Z" fill="#1F1808"/>
<path d="M352.027 0.926514C350.717 0.926514 349.655 1.39906 349.655 1.98156V18.7693C349.655 19.3518 350.717 19.8243 352.027 19.8243C353.336 19.8243 354.399 19.3518 354.399 18.7693V1.98156C354.399 1.39906 353.336 0.926514 352.027 0.926514Z" fill="#1F1808"/>
<path d="M363.849 4.14318C363.849 3.5605 362.787 3.08813 361.477 3.08813C360.167 3.08813 359.104 3.5605 359.104 4.14318V17.062C359.104 17.6447 360.167 18.1171 361.477 18.1171C362.787 18.1171 363.849 17.6447 363.849 17.062V4.14318Z" fill="#1F1808"/>
<path d="M373.299 3.21691C373.299 2.63423 372.237 2.16187 370.927 2.16187C369.617 2.16187 368.555 2.63423 368.555 3.21691V17.7124C368.555 18.2951 369.617 18.7674 370.927 18.7674C372.237 18.7674 373.299 18.2951 373.299 17.7124V3.21691Z" fill="#1F1808"/>
<path d="M380.377 0C379.067 0 378.005 0.472544 378.005 1.05505V19.9444C378.005 20.5269 379.067 20.9994 380.377 20.9994C381.686 20.9994 382.749 20.5269 382.749 19.9444V1.05505C382.749 0.472544 381.686 0 380.377 0Z" fill="#1F1808"/>
<path d="M389.828 2.16187C388.518 2.16187 387.456 2.63441 387.456 3.21691V17.7118C387.456 18.2943 388.518 18.7669 389.828 18.7669C391.138 18.7669 392.2 18.2943 392.2 17.7118V3.21691C392.2 2.63441 391.138 2.16187 389.828 2.16187Z" fill="#1F1808"/>
</svg>
