<svg width="345" height="266" viewBox="0 0 345 266" fill="none" xmlns="http://www.w3.org/2000/svg">
<g clip-path="url(#clip0_6888_5855)">
<path d="M33.4474 248.032H271.237C278.339 243.84 283.086 236.191 283.086 227.452C283.086 215.898 274.788 206.248 263.726 203.961C267.063 198.035 268.97 191.22 268.97 183.964C268.97 161.564 250.865 143.348 228.275 142.668C224.023 127.295 209.751 115.999 192.784 115.999C188.504 115.999 184.389 116.727 180.565 118.057C171.751 108.341 158.938 102.224 144.666 102.224C124.353 102.224 106.997 114.611 99.9334 132.11C94.5437 129.64 88.5411 128.242 82.198 128.242C59.0047 128.242 40.1991 146.746 40.1991 169.567C40.1991 173.061 40.6466 176.459 41.4736 179.694C24.7012 183.064 12.0928 197.662 12.0928 215.16C12.0928 229.73 20.8389 242.279 33.4571 248.023L33.4474 248.032Z" fill="#CEB064" stroke="#1F1808" stroke-width="4.21" stroke-linecap="round" stroke-linejoin="round"/>
<path d="M96.0951 55.0824L2.05524 80.3088L27.6934 172.838L121.733 147.612L96.0951 55.0824Z" fill="#E9DB91" stroke="#1F1808" stroke-width="4.21" stroke-linecap="round" stroke-linejoin="round"/>
<path d="M90.9521 73.3776L15.9192 93.5054L34.4153 160.259L109.448 140.131L90.9521 73.3776Z" fill="#F2D01D" stroke="#1F1808" stroke-width="4" stroke-linecap="round" stroke-linejoin="round"/>
<path d="M77.1391 89.4452C76.9542 88.421 76.244 87.4063 74.9209 87.9232L41.279 99.7069C40.3839 100.042 39.5765 101.028 39.81 102.282L46.2406 137.365C44.577 136.676 42.5048 136.638 40.5202 137.403C36.9011 138.801 34.9261 142.343 36.113 145.32C37.2999 148.287 41.1914 149.57 44.8105 148.172C47.914 146.976 49.8014 144.209 49.5289 141.567V141.52C49.4998 141.271 43.896 110.801 43.896 110.801L76.5164 99.9558L80.9819 124.299C79.3183 123.609 77.2461 123.571 75.2614 124.337C71.6423 125.734 69.6674 129.276 70.8543 132.253C72.0412 135.23 75.9424 136.504 79.5615 135.106C82.6552 133.909 84.5426 131.143 84.2799 128.501V128.453C84.2508 128.204 77.1391 89.4261 77.1391 89.4261V89.4452Z" fill="#AC8E40" stroke="#1F1808" stroke-width="4" stroke-linecap="round" stroke-linejoin="round"/>
<path d="M123.062 36.5042L71.7705 118.059L154.656 168.526L205.947 86.9716L123.062 36.5042Z" fill="#E9DB91" stroke="#1F1808" stroke-width="4.21" stroke-linecap="round" stroke-linejoin="round"/>
<path d="M122.699 55.4975L85.6957 114.333L151.829 154.6L188.832 95.7646L122.699 55.4975Z" fill="#F2D01D" stroke="#1F1808" stroke-width="4" stroke-linecap="round" stroke-linejoin="round"/>
<path d="M343.054 70.5492C343.054 68.7783 342.169 66.8638 339.785 67.3328L279.633 77.1063C278.018 77.4031 276.364 78.8294 276.364 80.9928V141.864C273.786 140.218 270.322 139.528 266.742 140.227C260.234 141.5 255.827 146.861 256.897 152.212C257.977 157.563 264.125 160.866 270.643 159.592C276.218 158.501 280.246 154.414 280.606 149.905V149.828C280.635 149.407 280.606 96.5385 280.606 96.5385L338.754 88.0477V130.281C336.176 128.635 332.713 127.946 329.132 128.645C322.624 129.918 318.217 135.278 319.287 140.629C320.367 145.98 326.525 149.283 333.034 148.01C338.608 146.918 342.626 142.831 342.996 138.322V138.246C343.025 137.825 343.025 70.5396 343.025 70.5396L343.054 70.5492Z" fill="#AC8E40" stroke="#1F1808" stroke-width="4" stroke-linecap="round" stroke-linejoin="round"/>
<path d="M295.928 24.697C295.928 23.7111 295.442 22.639 294.109 22.907L260.603 28.3537C259.699 28.5165 258.784 29.311 258.784 30.5171V64.4324C257.344 63.5134 255.418 63.1305 253.423 63.523C249.795 64.2314 247.343 67.218 247.937 70.195C248.54 73.1721 251.964 75.0196 255.593 74.3112C258.696 73.7081 260.944 71.4299 261.148 68.9123V68.8645C261.168 68.6251 261.148 39.1802 261.148 39.1802L293.545 34.4514V57.9805C292.105 57.0616 290.179 56.6787 288.184 57.0712C284.555 57.7795 282.104 60.7661 282.707 63.7528C283.3 66.7298 286.735 68.5773 290.363 67.8689C293.467 67.2659 295.705 64.9876 295.919 62.47V62.4318C295.928 62.1924 295.928 24.7162 295.928 24.7162V24.697Z" fill="#AC8E40" stroke="#1F1808" stroke-width="4" stroke-linecap="round" stroke-linejoin="round"/>
<path d="M240.805 3.34081C240.805 2.57501 240.426 1.74221 239.395 1.9528L213.351 6.18384C212.65 6.30828 211.931 6.93049 211.931 7.86859V34.2216C210.812 33.5133 209.313 33.2069 207.757 33.5133C204.936 34.0589 203.029 36.385 203.496 38.7015C203.963 41.0181 206.628 42.4444 209.45 41.8987C211.862 41.4297 213.604 39.6588 213.76 37.706V37.6677C213.769 37.4858 213.76 14.598 213.76 14.598L238.937 10.9222V29.2056C237.819 28.4973 236.32 28.191 234.774 28.4973C231.952 29.0525 230.045 31.369 230.512 33.6856C230.979 36.0021 233.645 37.438 236.466 36.8828C238.879 36.4137 240.621 34.6428 240.786 32.69V32.6517C240.796 32.4699 240.796 3.34081 240.796 3.34081H240.805Z" fill="#AC8E40" stroke="#1F1808" stroke-width="4" stroke-linecap="round" stroke-linejoin="round"/>
<path d="M173.551 99.7262C174.212 98.9125 174.514 97.7159 173.249 97.0842L142.069 79.959C141.222 79.5187 139.938 79.5761 139.13 80.5621L116.55 108.437C115.976 106.752 114.643 105.192 112.746 104.235C109.292 102.473 105.284 103.354 103.796 106.188C102.307 109.021 103.893 112.745 107.356 114.506C110.314 116.009 113.67 115.588 115.509 113.654L115.538 113.625C115.713 113.444 135.307 89.2156 135.307 89.2156L165.096 106.216L149.433 125.562C148.859 123.887 147.526 122.317 145.629 121.35C142.176 119.589 138.167 120.47 136.679 123.303C135.19 126.137 136.786 129.87 140.24 131.622C143.197 133.125 146.553 132.694 148.402 130.77L148.431 130.731C148.597 130.55 173.56 99.7357 173.56 99.7357L173.551 99.7262Z" fill="#AC8E40" stroke="#1F1808" stroke-width="4" stroke-linecap="round" stroke-linejoin="round"/>
<path d="M72.8779 263.99H285.966C307.048 256.389 322.099 236.478 322.099 213.102C322.099 183.179 297.446 158.932 267.044 158.932C264.193 158.932 261.401 159.142 258.667 159.554C255.009 137.413 235.484 120.498 211.94 120.498C196.977 120.498 183.649 127.333 174.971 137.997C165.262 128.262 151.758 122.221 136.805 122.221C107.269 122.221 83.3362 145.779 83.3362 174.832C83.3362 182.375 84.9609 189.535 87.8601 196.025C67.9551 196.13 51.8541 212.04 51.8541 231.644C51.8541 245.984 60.464 258.332 72.8681 263.99H72.8779Z" fill="#EDD141" stroke="#1F1808" stroke-width="4.21" stroke-linecap="round" stroke-linejoin="round"/>
<path d="M148.256 199.557H167.752C167.752 199.557 167.782 204.669 167.782 204.899C167.752 211.083 167.947 217.075 169.718 223.058C170.214 224.733 170.797 226.379 171.498 227.988C173.337 232.209 176.119 235.914 179.612 238.939C182.949 241.829 186.792 244.117 190.771 246.06C194.253 247.755 197.873 249.2 201.569 250.368C204.799 251.383 208.107 252.149 211.473 252.589C214.674 253.01 217.914 253.134 221.134 253.029C224.091 252.933 227.039 252.646 229.968 252.206C232.312 251.852 234.637 251.392 236.943 250.837C238.441 250.473 239.94 250.081 241.409 249.621C242.128 249.401 242.839 249.162 243.539 248.903C243.646 248.865 243.763 248.817 243.87 248.779C232.001 247.42 220.618 244.376 210.277 238.326C207.446 236.67 204.77 234.449 202.64 231.979C200.519 229.519 198.262 226.609 197.24 223.508C195.985 219.688 196.433 215.333 196.384 211.389C196.335 208.106 196.345 204.841 196.423 201.568C196.423 201.462 196.403 199.577 196.608 199.577H216.104L182.209 155.151C182.209 155.151 148.256 199.557 148.246 199.577L148.256 199.557Z" fill="white" stroke="#1F1808" stroke-width="4.21" stroke-linecap="round" stroke-linejoin="round"/>
</g>
<defs>
<clipPath id="clip0_6888_5855">
<rect width="345" height="266" fill="white"/>
</clipPath>
</defs>
</svg>
