<svg width="655" height="149" viewBox="0 0 655 149" fill="none" xmlns="http://www.w3.org/2000/svg">
<path d="M319.51 108.57L319.798 101L341.646 101.958L341.933 94.2922L320.085 93.3339L320.373 85.7637L342.221 86.722L342.508 79.056L320.66 78.0977L320.948 70.5275L342.796 71.4857L343.083 63.8197L321.235 62.8614L321.523 55.2912L343.371 56.2495L343.467 54.8121C344.233 37.1803 326.697 22.0399 304.37 21.0816H303.507C281.18 20.1233 262.494 33.7305 261.728 51.3624L261.632 52.7998L283.48 53.758L283.192 61.3283L261.344 60.37L261.057 68.036L282.905 68.9943L282.618 76.5645L260.769 75.6062L260.482 83.2723L282.33 84.2305L282.043 91.8007L260.194 90.8425L259.907 98.5085L281.755 99.4667L281.468 107.037L259.619 106.079L259.524 107.995C258.757 125.627 276.293 140.767 298.62 141.726H299.483C321.81 142.684 340.496 129.077 341.263 111.445L341.358 109.528L319.51 108.57Z" fill="#1F1808"/>
<path d="M84.7384 36.989C85.1217 44.655 83.7802 51.8419 79.9472 58.5497C78.7973 60.562 76.9766 61.9994 74.8684 62.7661C73.7185 63.2452 72.377 63.2452 71.1312 62.6702C68.9273 61.6161 67.0108 60.2746 65.8609 57.9748C65.1901 56.5374 64.5193 55.0042 63.8485 53.5668C62.3153 49.7338 59.9197 46.859 55.7992 45.9008C52.2537 45.0384 50.0497 45.9008 48.1332 49.063C45.4501 53.5668 44.2043 58.5497 43.0544 63.6285C41.7129 69.378 41.2337 75.2233 41.1379 81.0687C40.8504 93.9093 42.0962 106.654 42.4795 119.399C42.4795 120.261 42.7669 121.028 43.0544 121.794C45.5459 126.969 49.2831 130.419 55.4159 130.515C55.7034 130.515 55.9908 130.61 56.2783 130.706C56.47 130.994 56.47 130.994 56.47 131.09C56.7574 137.127 57.3324 136.072 52.1578 136.36C37.3049 137.222 22.5478 137.989 7.69487 138.756C4.82011 138.947 4.82011 138.851 4.82011 135.881C4.82011 135.018 4.82011 134.06 4.82011 133.198C6.73662 132.527 8.5573 132.048 10.378 131.377C13.4444 130.227 16.1275 128.215 18.044 125.532C18.9064 124.286 19.3856 122.849 19.2897 121.411C18.7148 106.271 18.1398 91.2262 17.5649 76.0858C17.3732 71.6778 17.0858 67.174 16.7024 62.7661C16.415 60.5621 15.9358 58.3581 15.1692 56.1541C14.211 53.2793 11.8154 51.0753 8.84478 50.5004C6.54497 50.0213 4.24516 49.7338 1.94535 49.638C0.316323 49.5421 0.220495 49.5421 0.220495 47.8173C0.220495 46.0924 0.124672 44.2718 0.0288471 42.5469C-0.0669782 39.8638 -0.0669781 39.8638 2.42448 38.8097C12.6778 34.4018 22.8353 29.898 33.0886 25.49C34.4301 24.915 35.7717 24.2442 37.1133 23.6693C38.6465 23.0943 39.1256 23.3818 39.4131 24.915C39.5089 25.3942 39.5089 25.8733 39.5089 26.3524C39.5089 32.9644 39.5089 39.4805 39.6047 46.0924C39.6047 46.4757 39.7005 46.859 39.988 47.0507C40.1797 46.4757 40.4671 45.9008 40.6588 45.4217C42.4795 40.9179 44.4918 36.6057 47.1749 32.5811C49.3789 29.323 52.062 26.4482 55.0326 24.0526C58.7698 20.9862 63.1777 19.5488 67.8732 19.3572C71.3229 19.0697 74.6768 20.3154 77.1682 22.711C78.1265 23.5735 78.9889 24.5317 79.8514 25.3942C83.0136 28.6522 84.5468 32.4852 84.7384 36.989Z" fill="#1F1808"/>
<path d="M253.966 13.6069L244.767 144.792L175.485 138.851L170.119 19.4523L253.966 13.6069ZM242.083 28.6515L229.818 27.8849C227.614 27.7891 226.176 28.5557 225.793 30.0889L209.215 87.7758L208.64 95.346L206.724 95.2501L207.299 87.68L199.729 28.5557C199.633 27.0225 198.195 25.9684 196.087 25.8726L183.534 25.106C181.139 24.9143 179.605 26.1601 179.414 28.364L194.075 130.035C194.171 131.568 195.608 132.622 197.716 132.718L211.707 133.58C213.911 133.676 215.348 132.909 215.732 131.376L245.725 32.3887V32.1971L246.012 32.0054C246.108 30.4722 244.767 28.8432 242.083 28.6515Z" fill="#1F1808"/>
<path d="M408.915 148.433C402.591 147.763 396.266 147.284 389.942 146.709C381.126 145.942 372.406 145.08 363.59 144.313C360.524 144.025 357.361 143.738 354.295 143.451C353.72 143.355 353.049 143.259 352.283 143.067C352.283 142.205 352.283 141.438 352.283 140.576C352.57 125.531 352.857 110.391 353.145 95.3462C353.624 73.4981 354.007 51.7457 354.391 29.8975C354.487 24.4355 354.487 18.9734 354.487 13.6072C354.391 12.8406 354.295 11.9782 354.103 11.2116C354.678 11.0199 355.445 10.6366 356.211 10.445C365.89 7.85769 375.664 5.27039 385.342 2.58728C388.121 1.82068 390.9 1.05409 393.679 0.38331C394.35 0.191659 395.021 0.0958253 395.787 0C395.979 1.82068 396.171 3.54555 396.362 5.17458C397.32 14.6613 398.279 24.148 399.237 33.6347C400.099 42.5465 401.058 51.4582 401.92 60.37C402.878 69.4734 403.837 78.5768 404.795 87.6802C405.561 95.1546 406.232 102.629 406.999 110.007C407.765 117.769 408.628 125.531 409.394 133.293C409.682 136.264 409.969 139.33 410.353 142.301C410.544 143.738 410.832 145.08 411.119 146.517C411.407 148.146 410.544 148.625 408.915 148.433ZM399.237 137.03C399.333 136.647 399.333 136.264 399.429 135.976C399.429 135.689 399.429 135.305 399.333 135.018C398.087 134.73 396.937 134.539 395.787 134.251C392.05 133.293 389.175 130.227 388.984 126.777C388.696 120.74 388.505 114.799 388.313 108.762C387.834 94.9629 387.355 81.0682 386.875 67.2694C386.684 60.1783 386.396 53.1831 386.109 46.092C386.013 44.463 386.684 42.9298 387.93 41.8757C389.175 41.0132 390.421 40.2467 391.763 39.6717C393.104 39.0967 393.2 39.1926 392.721 37.5635C392.433 37.5635 392.146 37.4677 391.954 37.4677C382.18 37.6594 372.406 37.851 362.727 38.0427C362.536 38.0427 362.344 38.0427 362.057 38.0427C361.673 38.2343 361.098 38.426 361.098 38.6176C361.194 39.0009 361.386 39.3842 361.769 39.5759C362.248 39.7675 362.727 39.8633 363.207 39.8633C367.615 40.6299 370.681 43.6964 370.777 47.6252C371.064 55.7703 371.352 63.9155 371.639 72.0607C372.214 89.405 372.789 106.654 373.46 123.998C373.652 127.831 371.735 130.802 368.86 133.389C367.615 134.635 365.89 135.305 364.165 135.21C363.494 135.21 362.823 135.305 362.153 135.401C362.248 136.359 362.248 137.318 362.344 138.468C374.897 138.468 387.067 137.509 399.237 137.03ZM366.752 23.8605C366.848 28.4601 370.873 32.0057 376.047 32.0057C381.318 32.0057 385.821 27.981 385.917 23.3814C385.917 18.7818 381.797 15.2362 376.526 15.2362C370.968 15.1404 366.656 19.0693 366.752 23.8605Z" fill="#1F1808"/>
<path d="M438.334 56.5371C438.142 56.8246 437.95 57.2079 437.855 57.4953C435.363 66.7904 433.926 76.2771 434.788 86.0513C435.363 91.8966 436.705 97.4545 439.484 102.629C443.029 109.241 448.012 114.128 455.103 116.907C461.044 119.207 466.986 119.878 473.118 117.674C476.281 116.524 479.347 115.086 482.509 113.841C483.084 113.649 483.659 112.882 484.522 113.841C484.33 114.224 484.042 114.607 483.755 114.895C476.76 122.082 469.764 129.364 462.865 136.551C462.482 137.03 462.098 137.318 461.619 137.701C456.157 140.384 450.504 142.397 444.275 141.822C435.459 141.055 428.56 136.647 423.193 129.843C418.498 123.902 416.294 116.907 415.336 109.528C414.186 100.617 415.144 91.8966 417.156 83.2724C419.264 73.9773 422.523 64.9697 426.835 56.4413C427.985 54.2373 429.326 52.225 430.955 50.3084C436.13 44.0798 441.496 37.947 446.862 31.8141C447.054 31.5267 447.341 31.2392 447.533 31.0475C449.258 29.131 449.737 29.0352 452.037 30.3768C457.403 33.4432 462.769 36.7012 468.135 39.6718C471.393 41.4925 474.747 43.2173 478.197 44.6547C480.593 45.7088 483.276 46.4754 485.767 47.3379C486.151 47.4337 486.534 47.6253 487.109 47.817C486.63 48.4878 486.246 48.9669 485.863 49.446C480.305 55.9621 474.652 62.3824 469.19 68.8986C468.231 70.0485 467.177 70.4318 465.931 69.9526C463.152 68.8986 460.374 67.8445 457.69 66.5988C451.174 63.3407 444.85 59.891 438.334 56.5371Z" fill="#1F1808"/>
<path d="M567.506 117.291C567.027 117.961 566.644 118.632 566.165 119.207C559.457 127.64 550.929 133.677 541.059 137.701C538.471 138.756 535.788 139.426 533.105 139.81C523.81 141.247 515.377 138.851 507.807 133.581C497.554 126.394 491.613 116.428 489.217 104.258C487.588 95.7299 488.067 87.2015 490.08 78.8647C492.667 68.0364 496.979 57.9747 503.591 48.9671C507.424 43.8884 511.928 39.5763 517.677 36.7015C520.36 35.2641 523.427 34.5933 526.493 34.6892C530.614 34.785 534.83 35.4558 538.759 36.7973C547.191 39.7679 553.037 45.5174 557.541 53.0876C562.044 60.7537 563.769 69.0905 564.248 77.8106C564.344 78.673 564.248 79.6313 564.248 80.7812C546.521 84.6142 528.793 87.8722 510.969 91.6094C510.874 99.3713 512.215 106.367 518.348 111.637C522.66 115.374 527.931 116.332 533.488 115.47C540.58 114.416 546.521 110.87 551.695 106.079C552.654 105.217 553.42 104.163 554.378 103.013L567.506 117.291Z" fill="#1F1808"/>
<path d="M654.995 46.2832C654.803 53.9492 652.983 61.0403 648.575 67.4606C647.329 69.3771 645.412 70.7187 643.208 71.2936C641.963 71.6769 640.621 71.5811 639.471 70.9103C637.363 69.7604 635.542 68.1314 634.584 65.8316C634.009 64.2984 633.434 62.7652 632.955 61.232C631.709 57.3031 629.601 54.3325 625.481 52.8951C622.031 51.7452 619.731 52.416 617.623 55.4824C614.557 59.7946 612.928 64.6816 611.394 69.5687C609.67 75.2224 608.711 80.972 608.136 86.8173C606.891 99.5621 607.082 112.403 606.507 125.147C606.507 126.01 606.603 126.872 606.891 127.639C608.999 133.005 612.448 136.742 618.581 137.317C618.869 137.413 619.156 137.413 619.348 137.509C619.444 137.796 619.54 137.892 619.54 137.892C619.348 143.929 620.019 142.875 614.844 142.779C599.991 142.492 585.138 142.109 570.381 141.725C567.506 141.629 567.506 141.629 567.698 138.659C567.794 137.796 567.89 136.838 567.89 135.976C569.902 135.497 571.723 135.113 573.543 134.538C576.706 133.58 579.485 131.759 581.593 129.268C582.551 128.118 583.126 126.681 583.126 125.243C583.701 110.103 584.276 95.0583 584.851 79.9179C585.042 75.5099 585.042 71.0061 584.947 66.5982C584.851 64.2984 584.467 62.0944 583.892 59.8904C583.222 56.9198 580.922 54.5242 577.951 53.7576C575.747 53.1826 573.448 52.7035 571.148 52.416C569.519 52.1285 569.423 52.2244 569.519 50.4995C569.615 48.7746 569.71 46.954 569.806 45.2291C569.902 42.546 569.902 42.546 572.489 41.6836C583.03 38.0422 593.571 34.4008 604.112 30.6637C605.549 30.1845 606.891 29.6096 608.328 29.2263C609.861 28.7472 610.34 29.0346 610.532 30.6637C610.532 31.1428 610.532 31.6219 610.436 32.101C609.957 38.6172 609.478 45.2291 608.999 51.7453C608.999 52.1286 609.095 52.5118 609.286 52.7993C609.574 52.2244 609.861 51.7452 610.149 51.1703C612.257 46.8582 614.652 42.6418 617.623 38.9046C620.019 35.8382 622.893 33.1551 626.151 30.9511C630.176 28.1722 634.584 27.1181 639.375 27.214C642.825 27.214 646.083 28.7472 648.383 31.3344C649.245 32.2927 650.012 33.2509 650.874 34.2092C653.845 37.7547 655.091 41.6836 654.995 46.2832Z" fill="#1F1808"/>
<path d="M167.052 89.9803L116.169 93.6216L117.032 107.516C117.223 111.349 118.661 114.512 121.344 117.099C124.027 119.686 127.093 120.932 130.543 120.644L143.384 119.686C151.816 119.111 155.745 114.128 155.17 104.737L167.819 103.875C166.957 122.657 159.099 132.623 144.15 133.677L118.661 135.497C111.761 135.976 105.628 133.677 100.262 128.598C94.8959 123.519 92.0212 117.099 91.5421 109.433L89.0506 67.5571C88.5715 59.9869 90.6796 53.2792 95.4709 47.4338C100.166 41.5885 106.012 38.4262 112.911 37.9471L138.401 36.1264C145.3 35.6473 151.433 37.9471 156.799 43.0258C162.07 48.1046 165.04 54.5249 165.423 62.0951L167.052 89.9803ZM115.307 79.7269L140.796 77.9063L139.934 63.8199C139.742 59.9869 138.305 56.8247 135.622 54.3332C132.939 51.7459 129.872 50.596 126.327 50.8835C122.877 51.171 120.002 52.7042 117.607 55.6748C115.307 58.5495 114.253 61.9034 114.444 65.7364L115.307 79.7269Z" fill="#1F1808"/>
</svg>
