<svg width="48" height="42" viewBox="0 0 48 42" fill="none" xmlns="http://www.w3.org/2000/svg">
<path d="M44.8 25.8462C43.9333 25.8462 43.1833 26.1659 42.55 26.8053C41.9167 27.4447 41.6 28.2019 41.6 29.0769V35.5385H6.4V29.0769C6.4 28.2019 6.08334 27.4447 5.45 26.8053C4.81666 26.1659 4.06667 25.8462 3.2 25.8462C2.33333 25.8462 1.58334 26.1659 0.95 26.8053C0.316664 27.4447 0 28.2019 0 29.0769V40.3846C0 40.7885 0.174999 41.1587 0.524999 41.4952C0.875001 41.8317 1.23333 42 1.6 42H46.4C46.8667 42 47.25 41.8401 47.55 41.5204C47.85 41.2007 48 40.8221 48 40.3846V29.0769C48 28.2019 47.6833 27.4447 47.05 26.8053C46.4167 26.1659 45.6667 25.8462 44.8 25.8462ZM17.6 12.9231H20.8V27.4615C20.8 28.3702 21.1167 29.1358 21.75 29.7584C22.3833 30.381 23.1333 30.6923 24 30.6923C24.8667 30.6923 25.6167 30.381 26.25 29.7584C26.8833 29.1358 27.2 28.3702 27.2 27.4615V12.9231H30.4C30.9667 12.9231 31.4917 12.9231 31.975 12.9231C32.4583 12.9231 32.85 12.7548 33.15 12.4183C33.45 12.1154 33.6 11.7368 33.6 11.2825C33.6 10.8281 33.45 10.4495 33.15 10.1466L25.25 0.454326C25.0833 0.286057 24.8917 0.168269 24.675 0.100962C24.4583 0.0336531 24.25 0 24.05 0C23.8167 0 23.5917 0.0336531 23.375 0.100962C23.1583 0.168269 22.9667 0.286057 22.8 0.454326L14.9 10.1466C14.6 10.4495 14.45 10.8281 14.45 11.2825C14.45 11.7368 14.6 12.1154 14.9 12.4183C15.2 12.7548 15.65 12.9231 16.25 12.9231C16.85 12.9231 17.3 12.9231 17.6 12.9231Z" fill="#1F1808"/>
</svg>
