<svg width="43" height="47" viewBox="0 0 43 47" fill="none" xmlns="http://www.w3.org/2000/svg">
<path d="M40.8349 8.5591H32.2248V6.40682C32.2248 4.60489 31.6122 3.08662 30.387 1.85197C29.1618 0.617318 27.6261 0 25.7799 0H17.2201C15.3739 0 13.8382 0.617318 12.613 1.85197C11.3878 3.08662 10.7752 4.60489 10.7752 6.40682V8.5591H2.16511C1.52732 8.5591 1.00703 8.75097 0.604215 9.13472C0.201403 9.51846 0 10.0273 0 10.6613C0 11.3287 0.201403 11.8543 0.604215 12.238C1.00703 12.6218 1.52732 12.8136 2.16511 12.8136H4.33021V40.5932C4.33021 42.3951 4.94281 43.9134 6.16803 45.148C7.39325 46.3827 8.92895 47 10.7752 47H32.2248C34.071 47 35.6067 46.3827 36.832 45.148C38.0572 43.9134 38.6698 42.3951 38.6698 40.5932V12.8136H40.8349C41.4727 12.8136 41.993 12.6218 42.3958 12.238C42.7986 11.8543 43 11.3287 43 10.6613C43 10.0273 42.7986 9.51846 42.3958 9.13472C41.993 8.75097 41.4727 8.5591 40.8349 8.5591ZM15.055 6.40682C15.055 5.77281 15.248 5.25559 15.6341 4.85516C16.0201 4.45474 16.5488 4.25453 17.2201 4.25453H25.7799C26.4512 4.25453 26.9799 4.45474 27.3659 4.85516C27.752 5.25559 27.945 5.77281 27.945 6.40682V8.5591H15.055V6.40682ZM34.3899 40.5932C34.3899 41.2272 34.1969 41.7361 33.8109 42.1198C33.4249 42.5036 32.8962 42.6954 32.2248 42.6954H10.7752C10.1038 42.6954 9.57514 42.5036 9.18911 42.1198C8.80308 41.7361 8.61007 41.2272 8.61007 40.5932V12.8136H34.3899V40.5932ZM17.2201 19.2204C16.5488 19.2204 16.0201 19.4123 15.6341 19.7961C15.248 20.1798 15.055 20.7054 15.055 21.3727V34.1864C15.055 34.8204 15.248 35.3292 15.6341 35.713C16.0201 36.0967 16.5488 36.2886 17.2201 36.2886C17.8579 36.2886 18.3698 36.0967 18.7559 35.713C19.1419 35.3292 19.3349 34.8204 19.3349 34.1864V21.3727C19.3349 20.7054 19.1419 20.1798 18.7559 19.7961C18.3698 19.4123 17.8579 19.2204 17.2201 19.2204ZM25.7799 19.2204C25.1421 19.2204 24.6302 19.4123 24.2441 19.7961C23.8581 20.1798 23.6651 20.7054 23.6651 21.3727V34.1864C23.6651 34.8204 23.8581 35.3292 24.2441 35.713C24.6302 36.0967 25.1421 36.2886 25.7799 36.2886C26.4512 36.2886 26.9799 36.0967 27.3659 35.713C27.752 35.3292 27.945 34.8204 27.945 34.1864V21.3727C27.945 20.7054 27.752 20.1798 27.3659 19.7961C26.9799 19.4123 26.4512 19.2204 25.7799 19.2204Z" fill="#1F1808"/>
</svg>
